# File created by Blade
# Date/Time:  Wed Jan 21 17:05:57 2015
# Frame Rate: 120.000 fps
#------------------------------------------------------
:FULLY-SPECIFIED
:DEGREES
582
root 19.857933 35.734480 -21.962681 -172.790656 2.616740 -178.628121
Spine -16.310604 -0.152575 0.374027
Head 10.666413 0.625410 2.447979
LeftShoulder -13.543817 -32.271166 21.532910
LeftArm -0.477789 1.512185 -6.105984
LeftForeArm 15.370034 -0.000000 -3.404870
LeftHand -6.976389 -0.000000 4.066682
LeftHandThumb1 -26.253704 0.000000 33.147579
RightShoulder -12.421258 -2.629169 -9.795144
RightArm 1.173163 41.266857 10.026886
RightForeArm -37.938194 0.000000 4.264283
RightHand -5.892832 -0.000000 2.590087
RightHandThumb1 -24.326973 -0.000000 -32.862282
LeftUpLeg 0.487837 14.885244 3.525759
LeftLeg -5.771043 -0.000000 0.000000
LeftFoot -17.865338 25.281543 -17.062047
LeftToeBase 23.913627 -0.000000 -0.000000
RightUpLeg -2.300396 -12.166032 0.409852
RightLeg -3.050661 -0.000000 0.000000
RightFoot -18.436608 -27.820407 17.277423
RightToeBase 22.573301 -0.000000 -0.000000
583
root 19.859775 35.730031 -22.003891 -172.776901 2.620842 -178.629123
Spine -16.408406 -0.150830 0.388864
Head 10.563555 0.663566 2.428257
LeftShoulder -13.634237 -32.272148 21.563757
LeftArm -0.649060 1.133752 -6.115263
LeftForeArm 15.173151 -0.000000 -3.448394
LeftHand -7.008564 -0.000000 3.938762
LeftHandThumb1 -26.253704 0.000000 33.147579
RightShoulder -12.491884 -2.685613 -9.786688
RightArm 1.117553 41.352172 9.992197
RightForeArm -37.795808 -0.000000 4.196209
RightHand -5.758614 -0.000000 2.560358
RightHandThumb1 -24.326973 -0.000000 -32.862282
LeftUpLeg 0.560963 14.867084 3.535276
LeftLeg -5.807921 -0.000000 0.000000
LeftFoot -17.908161 25.321992 -17.075555
LeftToeBase 23.807515 -0.000000 -0.000000
RightUpLeg -2.247194 -12.123695 0.395963
RightLeg -3.050817 -0.000000 0.000000
RightFoot -18.495743 -27.863858 17.251943
RightToeBase 22.668946 -0.000000 -0.000000
584
root 19.863380 35.725435 -22.045531 -172.768115 2.627331 -178.616440
Spine -16.505928 -0.168585 0.426089
Head 10.488004 0.700903 2.398653
LeftShoulder -13.740583 -32.292564 21.584117
LeftArm -0.797616 0.771034 -6.082712
LeftForeArm 15.057498 -0.000000 -3.520074
LeftHand -7.014935 -0.000000 3.808838
LeftHandThumb1 -26.253704 0.000000 33.147579
RightShoulder -12.535757 -2.788710 -9.769597
RightArm 1.089533 41.502191 9.973893
RightForeArm -37.590097 0.000000 4.165031
RightHand -5.722223 -0.000000 2.555312
RightHandThumb1 -24.326973 -0.000000 -32.862282
LeftUpLeg 0.629864 14.889444 3.559359
LeftLeg -5.820189 -0.000000 0.000000
LeftFoot -17.956832 25.329831 -17.052808
LeftToeBase 23.815982 -0.000000 -0.000000
RightUpLeg -2.181474 -12.046918 0.396336
RightLeg -3.061446 -0.000000 0.000000
RightFoot -18.567267 -27.932831 17.276010
RightToeBase 22.620165 -0.000000 -0.000000
585
root 19.870707 35.721823 -22.085446 -172.731606 2.637135 -178.607846
Spine -16.637952 -0.187782 0.434104
Head 10.430070 0.752993 2.421237
LeftShoulder -13.845926 -32.292692 21.660329
LeftArm -0.988516 0.422997 -6.085854
LeftForeArm 14.856333 -0.000000 -3.494198
LeftHand -7.082404 -0.000000 3.650798
LeftHandThumb1 -26.253704 0.000000 33.147579
RightShoulder -12.584116 -2.922229 -9.750984
RightArm 1.075129 41.708384 10.036304
RightForeArm -37.599216 -0.000000 4.239939
RightHand -5.864992 -0.000000 2.543428
RightHandThumb1 -24.326973 -0.000000 -32.862282
LeftUpLeg 0.666176 14.898413 3.577104
LeftLeg -5.834453 -0.000000 0.000000
LeftFoot -18.021035 25.354313 -17.091613
LeftToeBase 23.832770 -0.000000 -0.000000
RightUpLeg -2.146577 -12.019849 0.409255
RightLeg -3.076705 -0.000000 0.000000
RightFoot -18.614762 -27.951267 17.252806
RightToeBase 22.565872 -0.000000 -0.000000
586
root 19.875592 35.718225 -22.124372 -172.691454 2.663201 -178.584973
Spine -16.769952 -0.180329 0.467094
Head 10.378012 0.787748 2.426016
LeftShoulder -13.963008 -32.262686 21.702421
LeftArm -1.102746 0.056065 -6.088632
LeftForeArm 14.721216 0.000000 -3.524228
LeftHand -7.168674 -0.000000 3.419107
LeftHandThumb1 -26.253704 0.000000 33.147579
RightShoulder -12.647541 -3.025017 -9.711559
RightArm 1.120617 41.877113 10.042335
RightForeArm -37.464873 -0.000000 4.220976
RightHand -5.859727 -0.000000 2.533425
RightHandThumb1 -24.326973 -0.000000 -32.862282
LeftUpLeg 0.700784 14.951473 3.604869
LeftLeg -5.846052 -0.000000 0.000000
LeftFoot -18.077725 25.345102 -17.107773
LeftToeBase 23.847001 -0.000000 -0.000000
RightUpLeg -2.109938 -11.935106 0.425554
RightLeg -3.102116 -0.000000 0.000000
RightFoot -18.669157 -27.989247 17.297569
RightToeBase 22.553614 -0.000000 -0.000000
587
root 19.880104 35.714934 -22.162269 -172.646298 2.660898 -178.568209
Spine -16.921821 -0.205708 0.501987
Head 10.367686 0.801817 2.412905
LeftShoulder -14.055111 -32.199960 21.694635
LeftArm -1.157429 -0.152486 -6.065503
LeftForeArm 14.325023 -0.000000 -3.616396
LeftHand -7.238989 -0.000000 3.263226
LeftHandThumb1 -26.253704 0.000000 33.147579
RightShoulder -12.686805 -3.099520 -9.690572
RightArm 1.161010 42.070072 10.055806
RightForeArm -37.368707 -0.000000 4.209249
RightHand -5.860331 -0.000000 2.516494
RightHandThumb1 -24.326973 -0.000000 -32.862282
LeftUpLeg 0.734345 14.924825 3.629426
LeftLeg -5.870689 -0.000000 0.000000
LeftFoot -18.130982 25.372530 -17.101804
LeftToeBase 23.904396 -0.000000 -0.000000
RightUpLeg -2.071827 -11.942656 0.447626
RightLeg -3.145174 -0.000000 0.000000
RightFoot -18.712710 -28.002047 17.329544
RightToeBase 22.618174 -0.000000 -0.000000
588
root 19.888351 35.712595 -22.199442 -172.589534 2.674596 -178.534990
Spine -17.095128 -0.219929 0.552892
Head 10.380765 0.840699 2.396467
LeftShoulder -14.137119 -32.158424 21.725549
LeftArm -1.320844 -0.417263 -6.055841
LeftForeArm 13.963271 -0.000000 -3.574457
LeftHand -7.199140 -0.000000 2.998357
LeftHandThumb1 -26.253704 0.000000 33.147579
RightShoulder -12.694889 -3.143691 -9.698226
RightArm 1.145474 42.293608 10.064544
RightForeArm -37.345068 0.000000 4.239794
RightHand -5.863728 0.000000 2.464093
RightHandThumb1 -24.326973 -0.000000 -32.862282
LeftUpLeg 0.770461 14.916073 3.672014
LeftLeg -5.923287 -0.000000 0.000000
LeftFoot -18.163790 25.405385 -17.150681
LeftToeBase 23.845980 -0.000000 -0.000000
RightUpLeg -2.032602 -11.868877 0.484839
RightLeg -3.209386 -0.000000 0.000000
RightFoot -18.743371 -28.035886 17.409603
RightToeBase 22.513121 -0.000000 -0.000000
589
root 19.897742 35.709695 -22.234705 -172.526858 2.698660 -178.516355
Spine -17.270120 -0.222387 0.560564
Head 10.382325 0.838376 2.416835
LeftShoulder -14.192067 -32.120617 21.748364
LeftArm -1.414191 -0.554114 -6.034274
LeftForeArm 13.480845 -0.000000 -3.640271
LeftHand -7.101685 -0.000000 2.728390
LeftHandThumb1 -26.253704 0.000000 33.147579
RightShoulder -12.723441 -3.154462 -9.681357
RightArm 1.174165 42.487410 10.090675
RightForeArm -37.267849 0.000000 4.288559
RightHand -5.939100 -0.000000 2.472307
RightHandThumb1 -24.326973 -0.000000 -32.862282
LeftUpLeg 0.794431 14.923715 3.702966
LeftLeg -5.956760 -0.000000 0.000000
LeftFoot -18.190540 25.396135 -17.160291
LeftToeBase 23.851794 -0.000000 -0.000000
RightUpLeg -2.030230 -11.874679 0.516394
RightLeg -3.223399 -0.000000 0.000000
RightFoot -18.795477 -27.998027 17.450841
RightToeBase 22.512266 -0.000000 -0.000000
590
root 19.905666 35.706092 -22.270719 -172.471094 2.707676 -178.501983
Spine -17.433257 -0.250402 0.576948
Head 10.369211 0.832010 2.425333
LeftShoulder -14.261371 -32.129489 21.803001
LeftArm -1.554798 -0.740189 -6.020724
LeftForeArm 13.064471 0.000000 -3.644816
LeftHand -7.246670 -0.000000 2.631123
LeftHandThumb1 -26.253704 0.000000 33.147579
RightShoulder -12.738845 -3.097756 -9.710997
RightArm 1.200747 42.645474 10.155580
RightForeArm -37.284961 0.000000 4.362533
RightHand -5.945685 -0.000000 2.529179
RightHandThumb1 -24.326973 -0.000000 -32.862282
LeftUpLeg 0.805534 14.955101 3.725257
LeftLeg -5.969389 -0.000000 0.000000
LeftFoot -18.242563 25.391179 -17.178163
LeftToeBase 23.871065 -0.000000 -0.000000
RightUpLeg -2.002625 -11.872416 0.536779
RightLeg -3.266753 -0.000000 0.000000
RightFoot -18.828685 -27.987323 17.495936
RightToeBase 22.525976 -0.000000 -0.000000
591
root 19.914287 35.702464 -22.309533 -172.415608 2.701862 -178.500673
Spine -17.618942 -0.259013 0.567610
Head 10.390745 0.802309 2.433800
LeftShoulder -14.274669 -32.115296 21.832719
LeftArm -1.719581 -0.907860 -6.004124
LeftForeArm 12.712605 -0.000000 -3.573753
LeftHand -7.286829 -0.000000 2.244782
LeftHandThumb1 -26.253704 0.000000 33.147579
RightShoulder -12.768881 -3.081012 -9.736157
RightArm 1.196328 42.793574 10.193381
RightForeArm -37.308148 0.000000 4.442473
RightHand -5.929648 0.000000 2.561225
RightHandThumb1 -24.326973 -0.000000 -32.862282
LeftUpLeg 0.830082 14.940592 3.738558
LeftLeg -6.000877 -0.000000 0.000000
LeftFoot -18.283547 25.406497 -17.225047
LeftToeBase 23.852271 -0.000000 -0.000000
RightUpLeg -2.018773 -12.077395 0.563720
RightLeg -3.226959 -0.000000 0.000000
RightFoot -18.865066 -27.809212 17.434429
RightToeBase 22.582494 -0.000000 -0.000000
